<?xml version="1.0" standalone="no"?>
<!DOCTYPE svg PUBLIC "-//W3C//DTD SVG 20010904//EN"
 "http://www.w3.org/TR/2001/REC-SVG-20010904/DTD/svg10.dtd">
<svg version="1.0" xmlns="http://www.w3.org/2000/svg"
 width="1134.000000pt" height="1134.000000pt" viewBox="0 0 1134.000000 1134.000000"
 preserveAspectRatio="xMidYMid meet">
<metadata>
Created by potrace 1.11, written by Peter Selinger 2001-2013
</metadata>
<g transform="translate(0.000000,1134.000000) scale(0.100000,-0.100000)"
fill="#000000" stroke="none">
<path d="M5398 11335 c-2 -1 -57 -6 -123 -9 -66 -4 -129 -9 -140 -11 -11 -2
-47 -7 -80 -10 -88 -9 -193 -22 -245 -31 -14 -2 -53 -9 -87 -14 -406 -66 -928
-220 -1293 -382 -25 -11 -72 -32 -105 -46 -72 -32 -385 -190 -435 -220 -19
-11 -64 -37 -99 -57 -53 -30 -322 -201 -356 -227 -5 -4 -23 -18 -40 -31 -16
-12 -41 -30 -56 -39 -25 -16 -259 -196 -269 -208 -3 -3 -30 -25 -60 -50 -30
-25 -62 -52 -70 -60 -9 -8 -38 -35 -65 -58 -114 -100 -369 -358 -470 -477 -27
-32 -55 -63 -60 -69 -6 -6 -38 -45 -70 -86 -33 -41 -63 -77 -66 -80 -37 -31
-340 -473 -414 -605 -6 -11 -33 -58 -60 -105 -221 -387 -415 -857 -535 -1300
-38 -141 -96 -389 -105 -453 -2 -18 -7 -44 -10 -59 -10 -54 -15 -84 -25 -159
-6 -41 -12 -84 -14 -95 -2 -10 -7 -55 -11 -99 -4 -44 -9 -89 -11 -100 -25
-130 -24 -844 1 -1055 1 -14 6 -56 9 -93 4 -37 9 -77 11 -89 3 -11 7 -46 10
-77 4 -31 8 -63 10 -71 2 -8 7 -35 10 -60 3 -25 8 -52 10 -60 2 -8 7 -31 10
-50 3 -19 13 -69 21 -110 9 -41 17 -83 19 -92 10 -50 61 -248 90 -348 216
-741 577 -1426 1070 -2025 105 -128 134 -161 260 -294 445 -470 952 -849 1552
-1158 89 -45 169 -83 177 -83 9 0 16 -4 16 -10 0 -5 6 -10 13 -10 7 0 35 -11
63 -24 27 -13 114 -49 194 -80 80 -31 154 -61 165 -66 32 -14 322 -106 420
-134 125 -34 327 -81 432 -101 16 -3 39 -7 53 -10 21 -4 105 -18 240 -40 14
-2 48 -6 75 -9 28 -3 88 -10 135 -16 269 -31 925 -34 1112 -5 13 2 52 6 88 9
36 4 79 9 95 11 17 3 47 7 68 10 84 12 116 17 197 31 47 9 96 18 110 20 14 2
45 9 70 14 25 6 54 12 65 14 99 19 229 54 440 118 918 280 1752 794 2420 1488
127 132 152 159 187 203 18 22 42 50 53 61 49 52 286 360 331 431 10 17 21 32
24 35 6 5 124 189 177 275 209 340 415 799 556 1240 27 82 95 331 103 375 3
13 13 60 23 105 10 44 22 96 25 115 3 19 8 46 11 60 11 59 34 199 40 249 4 30
8 61 10 70 1 9 6 48 10 86 3 39 8 84 10 100 27 209 27 796 0 1050 -2 22 -7 68
-10 102 -3 34 -8 72 -10 85 -2 13 -6 41 -9 63 -5 42 -14 103 -22 145 -2 14 -7
41 -10 60 -15 97 -89 432 -114 515 -5 17 -24 77 -41 135 -93 313 -197 576
-350 885 -92 187 -114 227 -207 385 -143 240 -413 619 -547 766 -5 7 -35 40
-65 75 -115 132 -340 361 -459 465 -24 22 -56 50 -70 64 -137 128 -530 418
-756 557 -554 340 -1186 592 -1815 723 -127 26 -123 25 -185 35 -27 5 -52 9
-55 10 -3 1 -30 5 -60 9 -30 5 -62 10 -70 11 -8 1 -44 6 -80 10 -36 4 -74 9
-84 11 -10 2 -58 6 -105 10 -47 3 -102 8 -121 10 -41 5 -667 14 -672 9z"/>
</g>
</svg>
